<svg width="96" height="94" viewBox="0 0 96 94" fill="none" xmlns="http://www.w3.org/2000/svg">
<g clip-path="url(#clip0_14_6)">
<path d="M47.96 7.83333C25.88 7.83333 8 25.38 8 47C8 68.62 25.88 86.1667 47.96 86.1667C70.08 86.1667 88 68.62 88 47C88 25.38 70.08 7.83333 47.96 7.83333ZM48 78.3333C30.32 78.3333 16 64.3117 16 47C16 29.6883 30.32 15.6667 48 15.6667C65.68 15.6667 80 29.6883 80 47C80 64.3117 65.68 78.3333 48 78.3333ZM50 27.4167H44V50.9167L65 63.2542L68 58.4367L50 47.9792V27.4167Z" fill="#8A6724"/>
</g>
<defs>
<clipPath id="clip0_14_6">
<rect width="96" height="94" fill="white"/>
</clipPath>
</defs>
</svg>
