<svg width="96" height="94" viewBox="0 0 96 94" fill="none" xmlns="http://www.w3.org/2000/svg">
<g clip-path="url(#clip0_14_2)">
<path d="M48 7.83333C32.52 7.83333 20 20.0925 20 35.25C20 55.8125 48 86.1667 48 86.1667C48 86.1667 76 55.8125 76 35.25C76 20.0925 63.48 7.83333 48 7.83333ZM28 35.25C28 24.44 36.96 15.6667 48 15.6667C59.04 15.6667 68 24.44 68 35.25C68 46.53 56.48 63.4108 48 73.9467C39.68 63.4892 28 46.4125 28 35.25Z" fill="#8A6724"/>
<path d="M48 45.0417C53.5228 45.0417 58 40.6578 58 35.25C58 29.8422 53.5228 25.4583 48 25.4583C42.4772 25.4583 38 29.8422 38 35.25C38 40.6578 42.4772 45.0417 48 45.0417Z" fill="#8A6724"/>
</g>
<defs>
<clipPath id="clip0_14_2">
<rect width="96" height="94" fill="white"/>
</clipPath>
</defs>
</svg>
