<svg width="96" height="94" viewBox="0 0 96 94" fill="none" xmlns="http://www.w3.org/2000/svg">
<g clip-path="url(#clip0_14_9)">
<path d="M26.16 19.5833C26.4 23.0692 27 26.4767 27.96 29.7275L23.16 34.4275C21.52 29.7275 20.48 24.7533 20.12 19.5833H26.16ZM65.6 66.6617C69 67.6017 72.48 68.1892 76 68.4242V74.26C70.72 73.9075 65.64 72.8892 60.8 71.3225L65.6 66.6617ZM30 11.75H16C13.8 11.75 12 13.5125 12 15.6667C12 52.4442 42.44 82.25 80 82.25C82.2 82.25 84 80.4875 84 78.3333V64.6642C84 62.51 82.2 60.7475 80 60.7475C75.04 60.7475 70.2 59.9642 65.72 58.515C65.32 58.3583 64.88 58.3192 64.48 58.3192C63.44 58.3192 62.44 58.7108 61.64 59.455L52.84 68.0717C41.52 62.3925 32.24 53.345 26.48 42.2608L35.28 33.6442C36.4 32.5475 36.72 31.02 36.28 29.6492C34.8 25.2625 34 20.5625 34 15.6667C34 13.5125 32.2 11.75 30 11.75Z" fill="#8A6724"/>
</g>
<defs>
<clipPath id="clip0_14_9">
<rect width="96" height="94" fill="white"/>
</clipPath>
</defs>
</svg>
